<svg width="56" height="56" viewBox="0 0 56 56" fill="none" xmlns="http://www.w3.org/2000/svg">
<path d="M9.93999 23.6764C9.2982 28.5894 8.91578 33.5328 8.79432 38.4861C15.5115 41.2919 21.9431 44.7378 28 48.7761C34.0576 44.7377 40.49 41.2918 47.208 38.4861C47.0864 33.5328 46.704 28.5894 46.0623 23.6764M46.0623 23.6764C48.104 22.9904 50.1737 22.3557 52.2643 21.7771C44.6497 16.439 36.5213 11.8741 28 8.15039C19.4786 11.8749 11.3503 16.4405 3.73566 21.7794C5.81996 22.3549 7.88807 22.9874 9.93766 23.6764C16.1644 25.7699 22.2061 28.3782 28 31.4744C33.7931 28.3782 39.8363 25.7698 46.0623 23.6764ZM15.75 35.0001C16.2141 35.0001 16.6592 34.8157 16.9874 34.4875C17.3156 34.1593 17.5 33.7142 17.5 33.2501C17.5 32.7859 17.3156 32.3408 16.9874 32.0126C16.6592 31.6844 16.2141 31.5001 15.75 31.5001C15.2859 31.5001 14.8407 31.6844 14.5126 32.0126C14.1844 32.3408 14 32.7859 14 33.2501C14 33.7142 14.1844 34.1593 14.5126 34.4875C14.8407 34.8157 15.2859 35.0001 15.75 35.0001ZM15.75 35.0001V26.4251C19.709 23.9642 23.7983 21.7193 28 19.7004M11.6503 46.6504C12.9523 45.3517 13.9847 43.8084 14.6882 42.1094C15.3918 40.4103 15.7526 38.589 15.75 36.7501V33.2501" stroke="white" stroke-width="1.5" stroke-linecap="round" stroke-linejoin="round"/>
</svg>
