<svg width="56" height="56" viewBox="0 0 56 56" fill="none" xmlns="http://www.w3.org/2000/svg">
<path d="M5.25 43.75C17.6997 43.7399 30.0954 45.3885 42.1097 48.6523C43.806 49.1143 45.5 47.8543 45.5 46.095V43.75M8.75 10.5V12.25C8.75 12.7141 8.56563 13.1592 8.23744 13.4874C7.90925 13.8156 7.46413 14 7 14H5.25M5.25 14V13.125C5.25 11.676 6.426 10.5 7.875 10.5H47.25M5.25 14V35M47.25 10.5V12.25C47.25 13.216 48.034 14 49 14H50.75M47.25 10.5H48.125C49.574 10.5 50.75 11.676 50.75 13.125V35.875C50.75 37.324 49.574 38.5 48.125 38.5H47.25M5.25 35V35.875C5.25 36.5712 5.52656 37.2389 6.01884 37.7312C6.51113 38.2234 7.17881 38.5 7.875 38.5H8.75M5.25 35H7C7.46413 35 7.90925 35.1844 8.23744 35.5126C8.56563 35.8408 8.75 36.2859 8.75 36.75V38.5M47.25 38.5V36.75C47.25 36.2859 47.4344 35.8408 47.7626 35.5126C48.0907 35.1844 48.5359 35 49 35H50.75M47.25 38.5H8.75M35 24.5C35 26.3565 34.2625 28.137 32.9497 29.4497C31.637 30.7625 29.8565 31.5 28 31.5C26.1435 31.5 24.363 30.7625 23.0503 29.4497C21.7375 28.137 21 26.3565 21 24.5C21 22.6435 21.7375 20.863 23.0503 19.5503C24.363 18.2375 26.1435 17.5 28 17.5C29.8565 17.5 31.637 18.2375 32.9497 19.5503C34.2625 20.863 35 22.6435 35 24.5ZM42 24.5H42.0187V24.5187H42V24.5ZM14 24.5H14.0187V24.5187H14V24.5Z" stroke="white" stroke-width="1.5" stroke-linecap="round" stroke-linejoin="round"/>
</svg>
