<svg width="56" height="56" viewBox="0 0 56 56" fill="none" xmlns="http://www.w3.org/2000/svg">
<path d="M47.25 19.859C49.3127 20.5217 50.75 22.491 50.75 24.752V34.7527C50.75 37.4033 48.7737 39.6527 46.13 39.8697C45.3367 39.9327 44.5433 39.991 43.75 40.0377V47.25L36.75 40.25C33.5907 40.25 30.464 40.1217 27.37 39.8697C26.6964 39.8152 26.0412 39.623 25.445 39.305M47.25 19.859C46.8895 19.743 46.5168 19.6686 46.1393 19.6373C39.8905 19.1186 33.6095 19.1186 27.3607 19.6373C24.7217 19.8567 22.75 22.1037 22.75 24.752V34.7527C22.75 36.7057 23.8233 38.4393 25.445 39.305M47.25 19.859V15.4863C47.25 11.704 44.562 8.42567 40.81 7.938C35.9819 7.31218 31.1185 6.99886 26.25 7C21.315 7 16.4547 7.31967 11.69 7.938C7.938 8.42567 5.25 11.704 5.25 15.4863V30.0137C5.25 33.796 7.938 37.0743 11.69 37.562C13.0363 37.737 14.3897 37.8887 15.75 38.0147V49L25.445 39.305" stroke="white" stroke-width="1.5" stroke-linecap="round" stroke-linejoin="round"/>
</svg>
