<svg width="56" height="56" viewBox="0 0 56 56" fill="none" xmlns="http://www.w3.org/2000/svg">
<path d="M5.25 19.25H50.75M5.25 21H50.75M12.25 33.25H26.25M12.25 38.5H19.25M10.5 45.5H45.5C46.8924 45.5 48.2277 44.9469 49.2123 43.9623C50.1969 42.9777 50.75 41.6424 50.75 40.25V15.75C50.75 14.3576 50.1969 13.0223 49.2123 12.0377C48.2277 11.0531 46.8924 10.5 45.5 10.5H10.5C9.10761 10.5 7.77226 11.0531 6.78769 12.0377C5.80312 13.0223 5.25 14.3576 5.25 15.75V40.25C5.25 41.6424 5.80312 42.9777 6.78769 43.9623C7.77226 44.9469 9.10761 45.5 10.5 45.5Z" stroke="white" stroke-width="1.5" stroke-linecap="round" stroke-linejoin="round"/>
</svg>
