<svg width="56" height="56" viewBox="0 0 56 56" fill="none" xmlns="http://www.w3.org/2000/svg">
<path d="M23.625 5.25H13.125C11.676 5.25 10.5 6.426 10.5 7.875V48.125C10.5 49.574 11.676 50.75 13.125 50.75H42.875C44.324 50.75 45.5 49.574 45.5 48.125V27.125M23.625 5.25H24.5C30.0695 5.25 35.411 7.46249 39.3492 11.4008C43.2875 15.339 45.5 20.6805 45.5 26.25V27.125M23.625 5.25C25.7136 5.25 27.7166 6.07969 29.1935 7.55653C30.6703 9.03338 31.5 11.0364 31.5 13.125V16.625C31.5 18.074 32.676 19.25 34.125 19.25H37.625C39.7136 19.25 41.7166 20.0797 43.1935 21.5565C44.6703 23.0334 45.5 25.0364 45.5 27.125M21 35L26.25 40.25L35 28" stroke="white" stroke-width="1.5" stroke-linecap="round" stroke-linejoin="round"/>
</svg>
