<svg width="56" height="56" viewBox="0 0 56 56" fill="none" xmlns="http://www.w3.org/2000/svg">
<path d="M36.3767 33.53C36.8625 35.5858 36.8769 37.725 36.4186 39.7871C35.9603 41.8493 35.0413 43.781 33.7304 45.4376C32.4196 47.0941 30.7508 48.4325 28.8492 49.3525C26.9476 50.2726 24.8625 50.7503 22.75 50.75V39.55M36.3767 33.53C40.8331 30.2838 44.4583 26.0295 46.9564 21.1145C49.4544 16.1996 50.7543 10.7634 50.75 5.25001C45.237 5.24603 39.8013 6.54614 34.8868 9.04416C29.9722 11.5422 25.7183 15.1673 22.4723 19.6233M36.3767 33.53C32.3211 36.4963 27.6741 38.55 22.75 39.55M22.75 39.55C22.5097 39.599 22.267 39.6457 22.0243 39.69C19.9075 38.0114 17.9909 36.0948 16.3123 33.978C16.3564 33.7349 16.4007 33.4922 16.45 33.25M22.4723 19.6233C20.4163 19.1371 18.2769 19.1224 16.2145 19.5805C14.152 20.0386 12.22 20.9575 10.5632 22.2684C8.90634 23.5794 7.56769 25.2483 6.64755 27.1501C5.7274 29.0519 5.24962 31.1373 5.25 33.25H16.45M22.4723 19.6233C19.5064 23.6782 17.4504 28.3268 16.45 33.25M11.2257 38.8267C9.69075 39.9681 8.49736 41.5076 7.77472 43.2786C7.05209 45.0497 6.82775 46.9846 7.126 48.874C9.0156 49.172 10.9507 48.9473 12.7217 48.2242C14.4928 47.5012 16.0322 46.3073 17.1733 44.772M38.5 21C38.5 21.9283 38.1312 22.8185 37.4749 23.4749C36.8185 24.1313 35.9283 24.5 35 24.5C34.0717 24.5 33.1815 24.1313 32.5251 23.4749C31.8687 22.8185 31.5 21.9283 31.5 21C31.5 20.0718 31.8687 19.1815 32.5251 18.5251C33.1815 17.8688 34.0717 17.5 35 17.5C35.9283 17.5 36.8185 17.8688 37.4749 18.5251C38.1312 19.1815 38.5 20.0718 38.5 21Z" stroke="white" stroke-width="1.5" stroke-linecap="round" stroke-linejoin="round"/>
</svg>
